<svg width="195" height="263" viewBox="0 0 195 263" fill="none" xmlns="http://www.w3.org/2000/svg">
<g style="mix-blend-mode:overlay" opacity="0.05">
<path fill-rule="evenodd" clip-rule="evenodd" d="M139.454 189.55C132.165 190.091 125.584 190.361 119.712 190.361C102.831 190.235 90.7387 188.412 83.4333 184.89C79.6752 182.801 77.6785 180.441 77.4789 177.847C77.3504 176.178 77.1982 174.801 77.0772 173.712C77.0105 173.108 76.9531 172.593 76.9157 172.166C76.8096 170.968 76.3162 170.37 75.6351 170.37C74.954 170.37 74.4375 170.863 74.0969 171.848C73.4994 173.893 73.0053 175.965 72.6167 178.058C71.9593 181.189 71.3954 184.319 70.9257 187.449C70.5122 189.855 70.2689 192.287 70.1978 194.727C70.0194 198.595 71.5576 202.345 74.4019 204.975C77.487 208.183 82.686 210.371 89.9983 211.537C96.3906 212.332 102.831 212.673 109.271 212.558C116.777 212.544 124.276 212.082 131.726 211.173C139.647 210.219 147.496 208.729 155.215 206.712C160.089 205.391 164.881 203.785 169.566 201.899C174.244 199.819 178.738 197.349 183.002 194.516C185.784 192.565 188.197 190.137 190.13 187.344C192.466 183.796 194.433 180.02 196.003 176.075C197.251 173.257 198.146 170.296 198.669 167.259C198.81 165.698 198.469 164.911 198.058 164.911C197.647 164.911 196.755 166.085 195.392 168.433C193.956 170.831 192.117 172.964 189.955 174.736C187.7 176.614 183.871 178.68 178.469 180.934C172.614 183.33 166.558 185.2 160.37 186.522C153.479 188.022 146.489 189.034 139.454 189.55ZM115.554 244.123C112.994 249.146 111.714 252.41 111.714 253.913C111.714 254.664 112.09 255.204 113.253 256.025C114.415 256.847 116.2 258.057 118.631 259.664C121.063 261.273 122.484 262.176 122.883 262.388C123.987 262.388 125.772 260.333 128.12 256.237C130.509 252.159 131.703 249.029 131.703 246.846C131.503 245.203 129.953 242.937 127.087 240.026C124.221 237.115 122.037 235.976 120.534 236.586C119.782 236.586 118.115 239.099 115.554 244.123Z" fill="white"/>
<path fill-rule="evenodd" clip-rule="evenodd" d="M239.131 58.236C242.326 55.448 245.525 52.488 248.728 49.3558C251.932 46.2017 254.953 42.864 257.773 39.3598C260.492 35.9553 262.626 32.1205 264.088 28.0129C264.447 26.8382 264.401 26.3214 263.948 26.4624C262.05 28.6237 259.023 31.7834 254.867 35.9416C250.68 40.092 246.775 43.8077 243.15 47.0889C239.525 50.37 235.807 53.5765 231.995 56.7092C228.184 59.8414 224.805 62.6057 221.86 65.0021C218.915 67.398 215.053 70.5033 210.272 74.3168C206.64 77.1123 203.206 80.1584 199.996 83.432C198.792 84.7381 197.728 86.167 196.821 87.6957C195.848 89.4712 195.037 91.3309 194.395 93.2517C194.524 93.569 195.227 93.228 196.493 92.2418C197.114 91.7835 197.758 91.2904 198.414 90.7499C199.07 90.2094 199.75 89.6688 200.476 89.1171L210.002 81.5991C211.807 80.2488 213.623 78.8741 215.475 77.4645C217.357 76.0705 219.079 74.7395 220.642 73.4708C222.251 72.2103 224.844 70.123 228.422 67.2103C231.999 64.297 235.569 61.3058 239.131 58.236ZM192.978 121.231C193.06 119.516 193.2 115.675 193.376 109.72C193.376 107.911 193.516 105.656 193.763 103.036C194.009 100.417 194.184 98.6313 194.302 97.6799C194.419 96.7286 194.501 95.9063 194.571 95.2012C194.668 94.7679 194.668 94.319 194.571 93.8857C194.446 93.7056 194.177 93.7056 193.763 93.8857C193.224 94.9194 192.146 97.198 190.517 100.722C188.986 104.121 187.974 106.54 187.482 107.982C187.166 109.679 186.986 111.4 186.943 113.126C186.85 114.622 186.713 119.52 186.533 127.821C186.643 132.824 186.397 137.829 185.795 142.797C185.445 145.16 184.713 147.449 183.627 149.575C181.187 153.27 177.6 156.056 173.422 157.504C169.605 158.86 165.578 159.525 161.529 159.465C160.041 159.465 158.213 159.348 156.057 159.125C154.285 158.928 152.54 158.534 150.855 157.95C147.83 156.907 145.867 153.975 146.051 150.773C146.049 150.117 146.096 149.461 146.191 148.811C146.191 148.083 145.84 147.719 145.442 147.719C145.044 147.719 144.704 148.2 144.434 149.141C143.217 153.934 142.472 158.836 142.208 163.776C142.04 166.466 143.02 169.1 144.903 171.024C147.176 173.012 151.082 174.007 156.62 174.007C162.036 174.176 167.393 172.838 172.098 170.143C174.69 168.803 177.042 167.041 179.058 164.927C181.817 161.817 184.156 158.357 186.018 154.637C188.354 150.252 190.177 144.332 191.49 136.877C192.45 131.717 192.948 126.481 192.978 121.231Z" fill="white"/>
<path fill-rule="evenodd" clip-rule="evenodd" d="M177.611 72.7156C175.855 76.1613 174.977 78.4019 174.977 79.4381H174.954C174.954 79.9561 175.224 80.3801 176.023 80.9449C176.823 81.5104 178.045 82.3345 179.715 83.4411C181.385 84.5477 182.349 85.1718 182.631 85.3133C183.384 85.3133 184.571 83.9 186.217 81.0864C187.855 78.2766 188.674 76.1183 188.674 74.6108C188.533 73.4338 187.475 71.8914 185.512 69.9014C183.548 67.9121 182.043 67.1228 181.02 67.5467C180.503 67.5467 179.367 69.2699 177.611 72.7156ZM179.41 116.231C180.113 113.982 180.597 111.672 180.856 109.331C180.856 108.495 180.691 107.977 180.08 107.93C179.468 107.883 178.904 108.401 178.399 109.473C177.889 110.548 177.034 112.565 175.836 115.524C174.636 118.483 173.299 121.414 171.826 124.319C170.725 126.624 169.402 128.817 167.875 130.865C166.147 132.815 164.171 134.529 161.996 135.963C159.234 137.905 156.812 139.53 154.73 140.814C153.248 141.608 151.924 142.67 150.827 143.945C150.504 144.285 150.349 144.751 150.404 145.217C150.497 145.546 150.78 145.734 151.25 145.782C152.395 145.698 153.534 145.544 154.66 145.323C157.077 144.867 159.468 144.277 161.82 143.557C164.134 143.002 166.327 142.024 168.287 140.672C169.807 139.395 171.061 137.831 171.979 136.069C173.489 133.186 174.793 130.2 175.882 127.133C177.333 123.192 178.508 119.558 179.41 116.231Z" fill="white"/>
<path d="M156.662 104.009C156.286 106.361 155.577 108.647 154.559 110.796C153.986 112.277 152.974 113.545 151.661 114.425C150.465 114.967 149.19 115.305 147.886 115.427C147.158 116.582 146.223 117.588 145.128 118.396C143.725 119.317 142.12 119.879 140.453 120.034C140.36 120.034 140.22 120.399 140.032 121.141C139.218 128.962 137.407 136.645 134.645 144C132.635 149.172 130.014 154.081 126.838 158.622C119.367 168.833 110.407 173.966 99.9593 174.021C94.5058 173.785 90.1975 171.975 87.0344 168.59C83.8714 165.204 82.2041 160.526 82.0325 154.556C82.0325 145.083 85.1214 134.797 91.2997 123.698C92.4917 121.467 93.2046 120.772 93.4385 121.613C93.6718 122.413 93.6475 123.267 93.3681 124.052C89.2625 132.229 87.1667 139.298 87.0812 145.26C87.3145 149.824 88.9394 153.272 91.954 155.605C95.3454 158.079 99.4572 159.343 103.641 159.199C109.693 159.156 115.626 157.493 120.831 154.38C124.84 151.69 128.215 148.146 130.719 144C134.349 138.194 136.055 130.206 135.837 120.034V115.674C136.016 112.752 137.465 111.267 140.185 111.22C140.879 111.221 141.572 111.292 142.253 111.433C142.757 111.54 143.269 111.607 143.784 111.633C145.269 111.701 146.713 111.132 147.757 110.065C148.638 109.164 149.393 108.145 150.001 107.037C150.177 106.755 150.878 106.672 152.07 106.755C152.831 106.768 153.542 106.373 153.939 105.718C154.4 105.023 154.769 104.27 155.038 103.48C155.505 102.372 155.984 101.912 156.499 102.089C156.803 102.148 156.85 102.796 156.662 104.009Z" fill="white"/>
<path d="M161.427 71.4594C160.656 72.9918 159.806 74.4837 158.881 75.9288C157.939 77.4363 156.913 78.8895 155.808 80.281C153.037 84.2922 149.874 88.0172 146.365 91.4024C143.123 94.3749 139.483 96.8824 135.55 98.8512C132.138 100.404 128.425 101.185 124.676 101.139C121.953 101.193 119.255 100.615 116.793 99.4497C114.689 98.4615 112.869 96.956 111.503 95.0738C110.28 93.3519 109.44 91.3881 109.04 89.3139C108.664 87.3065 108.471 85.2685 108.465 83.2255C108.645 77.8852 109.873 72.6315 112.078 67.7644C113.87 63.5076 116.117 59.4571 118.776 55.681C119.421 54.7309 120.324 53.5108 121.462 52.0212C122.6 50.5313 123.961 48.889 125.533 47.0941C125.603 46.9416 125.251 46.6132 124.465 46.097C123.679 45.5809 122.929 45.0882 122.213 44.6306C121.679 44.359 121.222 43.9552 120.888 43.4575C120.715 43.0133 120.639 42.5374 120.664 42.0615C120.863 40.8005 121.384 39.6123 122.178 38.6127C123.186 37.0876 124.524 35.2928 126.154 33.2281C127.1 32.0899 128.179 31.0697 129.368 30.1898C130.601 29.0808 132.162 28.4052 133.814 28.2659C134.799 28.2225 135.758 28.5875 136.465 29.2748C137.051 29.7706 137.414 30.4803 137.474 31.2456C137.428 31.8896 137.177 32.5021 136.759 32.9935C136.434 33.5307 135.871 33.8797 135.245 33.932C134.716 33.8748 134.221 33.6437 133.838 33.2751C133.276 32.8357 132.58 32.6036 131.867 32.6181C130.742 32.7874 129.725 33.3841 129.028 34.2839C127.937 35.3866 127.398 36.243 127.398 36.853C127.398 37.463 128.031 38.0261 129.31 38.4836C130.565 38.9581 131.897 39.2006 133.239 39.1992C134.451 39.2302 135.661 39.0598 136.817 38.6948C138.034 38.2372 139.211 37.68 140.336 37.0289C141.697 36.2664 142.53 36.0318 142.835 36.3368C143.14 36.6419 143.14 37.2049 142.6 37.768C142.042 38.3658 141.407 38.8866 140.711 39.3165C135.374 43.0587 131.691 45.8038 129.697 47.5282C127.183 49.8217 124.879 52.3342 122.811 55.0357C120.314 58.1772 118.21 61.6129 116.547 65.2656C115.07 68.2132 114.231 71.4389 114.084 74.7325C114.002 78.1576 115.324 81.468 117.744 83.8944C120.637 86.8738 124.778 88.3638 130.166 88.3638C136.12 88.4087 141.956 86.6949 146.94 83.4368C148.541 82.4169 150.069 81.2878 151.515 80.0584C152.512 79.1782 153.474 78.2754 154.412 77.3365C155.315 76.4463 156.173 75.5105 156.981 74.533C157.767 73.6059 158.53 72.6676 159.327 71.7294C160.124 70.7905 160.676 70.028 161.157 69.3828C161.638 68.7375 161.943 68.5736 162.096 68.7263C162.248 68.8784 162.33 69.3828 162.096 70.0168C161.922 70.5187 161.698 71.0025 161.427 71.4594Z" fill="white"/>
<path fill-rule="evenodd" clip-rule="evenodd" d="M122.139 22.648C126.867 16.0192 129.547 8.1624 129.85 0.0410652C129.892 -2.37779 130.025 -4.23925 130.118 -5.552C130.155 -6.07268 130.186 -6.50703 130.203 -6.8556C130.255 -7.94791 130.298 -8.7347 130.324 -9.19949C130.327 -9.25696 130.329 -9.3095 130.332 -9.35709C130.355 -9.78959 130.343 -10 130.073 -10C129.803 -10 129.45 -9.57919 129.05 -8.74925C128.454 -7.43425 127.939 -6.08347 127.511 -4.70478C126.933 -3.05814 126.566 -1.34595 126.418 0.391747V3.05686V6.13113C126.482 7.86521 126.227 9.59635 125.665 11.2393C124.367 14.8855 121.885 17.9985 118.613 20.0881C115.408 21.9717 111.755 22.9685 108.033 22.9753C105.439 23.0094 102.902 22.219 100.792 20.7193C98.9349 19.226 97.8695 16.9686 97.9001 14.5942C97.955 11.0172 99.2362 6.77015 101.744 1.85289C101.896 1.36966 101.896 0.85159 101.744 0.368367C101.615 -0.122585 101.168 0.30989 100.439 1.65413C96.6775 8.3248 94.7969 14.5123 94.7969 20.2167C94.7183 23.313 95.8136 26.3255 97.8645 28.6563C99.9522 30.7433 102.792 31.9134 105.753 31.9059C112.124 31.8435 117.586 28.7576 122.139 22.648ZM116.99 5.99123C117.187 5.39579 117.231 4.76114 117.119 4.14431V4.12093C117.021 3.48216 116.753 2.88093 116.343 2.37925C115.844 1.74004 115.272 1.15956 114.639 0.649286C114.25 0.333081 113.871 0.0383224 113.525 -0.231187C113.244 -0.449887 112.985 -0.652004 112.759 -0.835293C111.888 0.57915 111.242 1.66623 110.842 2.39097C110.443 3.11571 109.949 4.10927 109.397 5.36C109.22 5.75744 108.961 6.33025 108.585 7.07831C108.65 7.4144 108.839 7.7144 109.114 7.91994C109.467 8.31738 109.89 8.67978 110.384 9.08888L111.947 10.4565C112.28 10.7814 112.682 11.0289 113.123 11.1812C113.58 11.1009 113.995 10.8655 114.298 10.515C115 9.85196 115.59 9.08264 116.049 8.23559C116.439 7.52101 116.754 6.76908 116.99 5.99123Z" fill="white"/>
<path d="M53.2935 34.1657C51.7936 37.1297 50.7169 40.2935 50.0958 43.5626C49.0342 48.5619 48.2769 53.6219 47.8283 58.7153C47.2624 64.6741 46.8748 70.2538 46.6655 75.4532C46.4562 80.6527 46.2973 85.1669 46.1887 88.9967C46.0375 92.814 45.7236 94.3881 45.2236 93.6949C44.7973 93.0789 44.6035 92.3289 44.6771 91.5808C44.6771 88.1039 44.7158 83.1196 44.7933 76.6278C44.8709 70.136 45.1538 63.2371 45.6422 55.9311C45.9691 49.4154 47.09 42.9651 48.9795 36.7264C49.5143 35.2346 50.1423 33.7546 50.747 32.2746C52.0371 29.5187 53.6243 26.9148 55.4796 24.5105C56.4891 23.2703 57.5725 22.0934 58.7239 20.9866C59.8025 19.9206 60.9696 18.9499 62.2123 18.0853C63.1032 17.4671 64.027 16.8985 64.9795 16.3821C65.5477 16.0909 66.0954 15.7613 66.6194 15.3954L69.6776 9.15831C70.0781 8.1562 70.6844 7.25141 71.4566 6.50367C71.5963 6.36271 72.1546 6.36271 73.1195 6.50367C74.3751 6.75036 75.317 6.95005 75.9682 7.10272C76.6194 7.2554 77.6311 7.5491 79.0265 8.01892C80.2515 8.27141 81.1285 9.36385 81.1198 10.6266C81.131 11.387 81.0412 12.1456 80.8522 12.8818C80.5403 13.7912 80.1517 14.6715 79.6895 15.5129C79.1556 16.6078 78.4707 17.6203 77.6542 18.5199C76.9793 19.2926 76.1959 19.9614 75.3289 20.505C74.3764 21.0343 73.3703 21.4595 72.3286 21.7736C71.0499 22.1965 69.6308 22.584 68.0496 22.9482C66.3574 23.3525 64.7038 23.9067 63.1076 24.6044C61.1272 25.5318 59.3212 26.7996 57.7704 28.3514C56.0064 30.0596 54.4983 32.0182 53.2935 34.1657Z" fill="white"/>
<path d="M92.0476 33.9078C91.9323 34.6012 91.7557 35.283 91.5193 35.9451C91.2842 36.6125 90.885 37.5258 90.3448 38.6967C89.8046 39.8676 89.4759 40.5467 89.3586 40.7224C88.912 41.4249 88.5128 41.7645 88.1841 41.7645C87.8554 41.7645 87.7026 41.4366 87.503 41.2844C87.3501 41.1476 87.1561 41.0652 86.9515 41.0502C85.9754 41.1348 85.0298 41.4305 84.1802 41.9167C82.7905 42.6545 81.5099 43.5805 80.3753 44.6683C79.1827 45.724 78.1048 46.9014 77.158 48.181C76.586 48.8309 76.1824 49.6109 75.9834 50.4525C75.9566 50.9921 76.1718 51.5157 76.571 51.881C77.1424 52.2407 77.753 52.5353 78.3911 52.7591C78.9993 52.9673 79.5794 53.2503 80.1171 53.6019C81.0446 54.246 81.5024 55.5109 81.5024 57.3843C81.4326 60.4161 80.9385 63.4229 80.0347 66.3181C79.1702 69.3985 77.8609 72.3367 76.1481 75.0412C75.2811 76.2593 74.3236 77.4102 73.2826 78.4837C72.2328 79.6022 71.0495 80.5891 69.7602 81.4226C67.2827 83.0417 64.3728 83.8783 61.4111 83.8228C58.2781 83.9637 55.2622 82.6227 53.2734 80.205C52.4547 79.0492 51.8611 77.7506 51.5237 76.3759C51.2156 75.1266 51.054 73.8454 51.0423 72.5593C51.0416 71.0462 51.1555 69.535 51.3828 68.0394C51.615 66.5351 51.9644 65.0513 52.4279 63.6018C53.1527 61.2016 54.0434 58.8537 55.0935 56.5763C56.1268 54.3401 56.9723 52.5253 57.6182 51.155L59.5792 47.0218C59.8023 46.5534 60.0371 46.0851 60.2955 45.6402C60.5538 45.1952 60.7652 44.961 60.9648 44.961C61.1644 44.961 61.3993 45.1835 61.4111 45.6402C61.4421 45.9832 61.3897 46.3285 61.2584 46.6471C60.953 47.455 60.683 48.1341 60.4599 48.6844C60.2368 49.2348 59.8962 50.0193 59.45 51.0262C59.0038 52.0332 58.5106 53.1805 57.9939 54.3868C57.4772 55.5926 57.0428 56.5882 56.714 57.3725C55.0465 61.7402 54.2245 65.0182 54.2245 67.2077C54.1368 69.3131 55.0509 71.3355 56.6905 72.6646C58.6925 74.1241 61.1431 74.8404 63.6187 74.6902C66.1125 74.6852 68.5701 74.0954 70.7932 72.9689C72.4012 72.1752 73.8558 71.1048 75.0915 69.8074C76.1076 68.747 76.9908 67.5675 77.7218 66.295C78.2689 65.4166 78.5807 64.4123 78.6257 63.3792C78.6257 62.8406 78.2265 62.4541 77.4517 62.2084C76.6764 61.9622 76.0776 61.787 75.7252 61.7047C75.3185 61.595 74.9249 61.4422 74.5513 61.2483C73.7473 60.9291 73.0399 60.4086 72.496 59.7378C72.0001 58.9685 71.7619 58.0626 71.8149 57.1499C71.9446 54.9648 72.4985 52.8251 73.4472 50.8506C74.6243 48.1262 76.1737 45.5768 78.0506 43.2749C79.4004 41.5413 80.8631 39.8985 82.4306 38.3572C83.1348 37.7132 84.0392 36.9755 85.1314 36.1559C86.1488 35.3756 87.2198 34.6674 88.3369 34.0366C89.2414 33.4633 90.2387 33.0513 91.2842 32.8188C91.5536 32.7994 91.8063 32.9488 91.9185 33.1935C92.0364 33.412 92.0813 33.662 92.0476 33.9078Z" fill="white"/>
<path fill-rule="evenodd" clip-rule="evenodd" d="M59.4137 129.306C59.0145 129.965 58.6999 130.674 58.4778 131.414H58.4544C58.4544 131.51 58.6884 131.748 59.1914 132.129L60.2093 132.975C60.3471 133.134 60.5319 133.242 60.7357 133.285C61.2388 133.285 61.9057 132.427 62.748 130.699C63.1666 131.024 63.5577 131.382 63.9182 131.772C63.9612 131.815 64.0018 131.855 64.0411 131.894C64.4147 132.267 64.6099 132.462 64.8538 132.462C65.1233 132.462 65.5325 132.082 66.0938 131.272C66.5835 130.664 66.881 129.921 66.9484 129.139C66.8611 128.512 66.5635 127.936 66.1057 127.507C65.7664 127.05 65.268 126.744 64.7135 126.649C64.585 126.649 64.3274 126.959 63.9531 127.614C63.723 128.017 63.5015 128.393 63.2944 128.744C63.1647 128.964 63.0406 129.175 62.9233 129.377C62.5709 128.904 62.1795 128.461 61.7536 128.055C61.2271 127.555 60.7241 127.471 60.5837 127.471C60.4432 127.471 60.0455 128.115 59.4137 129.306ZM64.9474 141.302C63.2982 141.493 61.8004 141.493 60.4666 141.493C56.6215 141.469 53.8722 141.06 52.2187 140.266C51.3646 139.813 50.92 139.217 50.8732 138.622C50.8264 138.026 50.7796 137.585 50.7445 137.311C50.7094 137.037 50.6041 136.894 50.4521 136.894C50.2999 136.894 50.1712 137.002 50.1011 137.24C50.0308 137.478 49.9021 137.943 49.7618 138.669C49.6214 139.396 49.4927 140.135 49.3757 140.861C49.2869 141.417 49.2362 141.978 49.2236 142.541C49.1777 143.439 49.5246 144.311 50.1712 144.924C51.1538 145.796 52.3824 146.33 53.681 146.449C55.1323 146.632 56.5944 146.712 58.0566 146.687C59.7656 146.684 61.4728 146.576 63.1691 146.366C64.9686 146.142 66.7507 145.796 68.504 145.329C69.6131 145.022 70.7034 144.649 71.7682 144.209C72.8323 143.731 73.8534 143.161 74.8221 142.505C75.4502 142.053 75.996 141.492 76.4363 140.849C76.9665 140.028 77.4138 139.154 77.7699 138.24C78.0606 137.588 78.2652 136.899 78.3781 136.192C78.4137 135.835 78.3313 135.644 78.2378 135.644C78.1442 135.644 77.9452 135.917 77.6414 136.454C77.3152 136.995 76.9042 137.477 76.4245 137.883C75.6211 138.475 74.7441 138.957 73.8153 139.313C72.483 139.869 71.1051 140.303 69.6973 140.611C68.1323 140.957 66.5448 141.187 64.9474 141.302Z" fill="white"/>
<path fill-rule="evenodd" clip-rule="evenodd" d="M50.6434 200.742C49.6894 202.068 48.7353 203.301 47.7812 204.463C47.3263 204.553 46.858 204.553 46.4031 204.463C45.8381 204.375 45.2672 204.329 44.6952 204.324C43.7714 204.473 42.9891 205.079 42.6221 205.929C42.1928 207.042 41.9926 208.228 42.0332 209.418V211.848C42.1589 217.779 41.1459 222.431 38.9943 225.803C37.5078 228.22 35.4963 230.282 33.1049 231.838C30.0016 233.652 26.464 234.616 22.8574 234.629C20.4044 234.637 18.0094 233.893 16.0022 232.501C14.1273 231.078 13.0371 228.87 13.0575 226.535C13.1046 223.085 14.3493 218.981 16.7914 214.22C16.941 213.759 16.941 213.263 16.7914 212.802C16.6971 212.325 16.226 212.72 15.5192 214.022C11.86 220.481 10.0304 226.458 10.0304 231.955C9.94941 234.944 11.0184 237.852 13.0222 240.095C15.0477 242.125 17.8155 243.265 20.7019 243.258C26.9054 243.203 32.2215 240.219 36.6503 234.303C38.5335 231.662 40.0914 228.808 41.2911 225.803C42.9454 221.547 44.0418 217.1 44.5538 212.569C44.5832 212.318 44.6676 212.075 44.8012 211.86C44.9661 211.546 45.3902 211.395 46.0733 211.395C47.7141 211.463 49.3563 211.299 50.9497 210.906C53.3171 210.115 55.3758 208.615 56.8391 206.615C57.9835 205.126 58.9481 203.51 59.7131 201.801C60.4748 200.355 60.9353 198.773 61.0676 197.149C61.0807 196.357 60.8095 195.587 60.302 194.975C59.7822 194.362 59.0016 194.026 58.1936 194.068C57.443 194.114 56.7188 194.359 56.097 194.776C55.1104 195.412 54.2318 196.197 53.4939 197.102C52.5516 198.207 51.5975 199.417 50.6434 200.742ZM57.7226 198.834C58.3704 199.102 58.6884 199.369 58.6884 199.602C58.3468 200.295 57.8467 200.9 57.2279 201.37C56.3333 202.093 55.3663 202.724 54.3421 203.253C53.5619 203.62 52.7446 203.905 51.9039 204.102C51.2049 204.246 50.4963 204.339 49.7837 204.382C49.9622 204.071 50.1959 203.736 50.4892 203.316C50.6024 203.154 50.7244 202.98 50.8556 202.788C51.3599 202.049 51.9065 201.338 52.4928 200.66C53.6706 199.172 54.7897 198.427 55.8615 198.427C56.5032 198.439 57.136 198.578 57.7226 198.834Z" fill="white"/>
<path fill-rule="evenodd" clip-rule="evenodd" d="M42.6713 118.198C42.0136 119.414 41.4743 120.691 41.0609 122.011C41.0609 122.305 41.3059 122.645 41.7727 122.985C42.2395 123.325 42.9397 123.912 43.815 124.686C43.8727 124.738 43.9285 124.787 43.9825 124.835C44.7457 125.512 45.1381 125.86 45.5304 125.86C45.9506 125.86 46.6158 125.015 47.526 123.349C48.2713 122.16 48.7345 120.816 48.8798 119.418C48.794 118.226 48.2748 117.106 47.421 116.274C46.7547 115.453 45.7956 114.927 44.7486 114.807C44.4335 114.807 43.7449 115.933 42.6713 118.198ZM37.1515 132.724C37.6011 131.343 38.2163 130.024 38.9836 128.793C40.1507 126.517 40.9442 125.379 41.2359 125.379C42.0649 125.578 42.8188 126.014 43.4066 126.634C44.2274 127.268 44.9072 128.067 45.4021 128.981C46.0323 127.948 46.6275 126.94 47.1993 125.966C48.0279 124.581 48.5414 123.888 48.7514 123.888C49.7758 124.063 50.708 124.59 51.3888 125.379C52.2606 126.159 52.8102 127.239 52.9292 128.406C52.7908 129.846 52.2575 131.219 51.3888 132.371C50.3229 133.936 49.5449 134.718 49.0548 134.718C48.6814 134.718 48.1563 134.355 47.4677 133.639C46.7499 132.842 45.9694 132.104 45.1337 131.433C43.5777 134.664 42.3446 136.279 41.4344 136.279C40.5823 135.861 39.7959 135.319 39.1003 134.671C37.8166 133.557 37.1515 132.923 37.1515 132.724ZM56.3835 150.675C56.1522 152.135 55.712 153.554 55.0765 154.887C54.7257 155.805 54.0971 156.589 53.2793 157.128C52.5421 157.467 51.7528 157.678 50.9453 157.75C50.4963 158.469 49.9139 159.094 49.2298 159.592C48.3703 160.161 47.3841 160.508 46.359 160.601C46.359 160.601 46.2073 160.836 46.0906 161.293C45.5863 166.138 44.4646 170.898 42.753 175.455C41.4993 178.662 39.8695 181.707 37.8983 184.525C33.2303 190.829 27.6638 194.009 21.1986 194.064C18.1812 194.071 15.2878 192.857 13.1697 190.697C11.0687 188.306 9.94703 185.203 10.0304 182.014C10.0304 176.148 11.9482 169.772 15.7837 162.889C16.5306 161.516 16.9507 161.082 17.1141 161.599C17.2712 162.09 17.2712 162.62 17.1141 163.112C14.5701 168.173 13.2708 172.545 13.2163 176.229C13.1909 178.692 14.2818 181.033 16.1805 182.589C18.279 184.119 20.8248 184.904 23.4159 184.818C27.1943 184.8 30.8997 183.772 34.1523 181.838C36.6392 180.169 38.7341 177.975 40.2906 175.408C42.5546 171.81 43.6127 166.859 43.4649 160.554V157.832C43.4014 157.089 43.6649 156.356 44.1858 155.826C44.7068 155.295 45.4328 155.021 46.1723 155.075C46.6033 155.077 47.0331 155.121 47.456 155.204C47.7671 155.273 48.0832 155.316 48.4013 155.333C49.3264 155.379 50.2267 155.024 50.8753 154.359C51.4219 153.801 51.8892 153.169 52.264 152.482C52.3807 152.318 52.8125 152.259 53.5594 152.318C54.037 152.323 54.4814 152.073 54.7264 151.66C55.0087 151.232 55.2398 150.771 55.4149 150.288C55.695 149.596 55.9984 149.302 56.3135 149.419C56.5793 149.518 56.5296 149.809 56.4375 150.349C56.4203 150.449 56.4018 150.558 56.3835 150.675Z" fill="white"/>
<path fill-rule="evenodd" clip-rule="evenodd" d="M107.422 107.456C106.867 108.368 106.424 109.344 106.103 110.363C106.103 110.549 106.439 110.851 107.064 111.386C107.689 111.921 108.151 112.305 108.464 112.549C108.662 112.767 108.919 112.921 109.204 112.991C109.91 112.991 110.836 111.77 111.994 109.444C112.571 109.897 113.12 110.387 113.637 110.91C113.704 110.974 113.768 111.036 113.828 111.095C114.333 111.588 114.59 111.84 114.921 111.84C115.292 111.84 115.87 111.293 116.657 110.188C117.329 109.357 117.733 108.339 117.814 107.27C117.697 106.414 117.288 105.625 116.657 105.037C116.182 104.42 115.491 104.004 114.725 103.875C114.562 103.875 114.204 104.387 113.672 105.212C113.139 106.037 112.665 106.84 112.26 107.537C111.768 106.898 111.23 106.296 110.651 105.735C109.945 105.061 109.251 104.968 109.043 104.968C108.834 104.968 108.291 105.794 107.422 107.456ZM122.466 133.175C122.812 131.573 123.002 129.942 123.033 128.303C123.12 126.886 122.849 125.47 122.246 124.187C121.856 123.242 120.95 122.614 119.932 122.582C119.386 122.648 118.898 122.955 118.601 123.419C118.281 123.841 118.001 124.292 117.768 124.768L116.935 126.407C116.593 127.123 116.326 127.871 116.136 128.64C116.026 129.161 116.208 129.7 116.611 130.047C117.033 130.416 117.579 130.611 118.138 130.593C118.531 130.584 118.92 130.522 119.295 130.407C119.684 130.445 120.035 130.654 120.256 130.977C120.54 131.482 120.67 132.061 120.627 132.64C120.606 134.017 120.327 135.378 119.804 136.651C119.277 137.997 118.589 139.273 117.757 140.453C116.205 142.589 114.1 144.254 111.669 145.267C110.018 145.928 108.252 146.256 106.474 146.232C104.7 146.357 102.927 145.953 101.382 145.069C99.8312 144.046 99.0677 142.337 99.0677 139.907C99.1295 138.782 99.344 137.671 99.7039 136.604C100.118 135.243 100.621 133.911 101.208 132.616C101.382 132.186 101.787 131.454 102.365 130.442C103.072 129.059 103.199 128.012 103.072 127.896C102.944 127.78 102.793 127.849 102.62 128.105C102.447 128.361 102.284 128.628 102.111 128.919C100.728 131.061 99.4981 133.299 98.4308 135.616C97.8096 137.078 97.3443 138.602 97.0424 140.162C96.7835 141.457 96.6438 142.773 96.6257 144.092C96.5296 146.316 97.1727 148.509 98.4539 150.325C99.8948 152.168 102.142 153.189 104.472 153.057C106.853 153.088 109.196 152.456 111.242 151.231C113.248 149.921 115.004 148.259 116.426 146.325C117.254 145.269 118.026 144.171 118.74 143.034C119.711 141.372 120.539 139.629 121.217 137.826C121.752 136.31 122.17 134.755 122.466 133.175Z" fill="white"/>
<path d="M88.7536 50.4702C88.8784 50.0841 89.1516 50.0256 89.5608 50.283C91.6497 51.3926 92.9646 53.6081 92.9702 56.0283C92.9041 57.6517 92.5174 59.2446 91.8337 60.709C91.3241 61.8281 90.6536 62.8617 89.8446 63.7744C88.4349 65.1148 86.699 66.0369 84.8215 66.4427C84.6088 66.492 84.3917 66.5194 84.1734 66.5244C83.9576 66.5244 83.8553 66.5244 83.8553 66.3604C83.8553 66.1971 84.1734 65.8224 84.8215 65.3424C86.1145 64.4147 87.3202 63.3649 88.4243 62.2065C89.5608 61.0363 90.0492 60.3462 90.0492 59.9834C90.0492 59.0239 89.0374 57.643 87.0034 55.9934C86.6428 55.7297 86.5025 55.2478 86.6622 54.8232C87.2647 53.8051 87.9353 52.3424 88.7536 50.4702Z" fill="white"/>
<path fill-rule="evenodd" clip-rule="evenodd" d="M14.1677 87.0934C13.4003 88.3752 12.853 89.7779 12.5487 91.2424C12.5487 91.5241 12.77 91.829 13.2475 92.122L15.4607 93.5871C16.4857 94.2903 17.0798 94.6768 17.2546 94.7591C17.6894 94.7591 18.4233 93.9188 19.4561 92.2392C20.2743 91.0491 20.7939 89.6782 20.9704 88.2424C20.6081 87.114 19.9332 86.114 19.0251 85.359C17.8137 84.1284 16.8934 83.6359 16.2644 83.9058C15.9499 83.9058 15.251 84.9607 14.1677 87.0934ZM8.66983 113.23C8.08737 114.18 7.94764 114.743 8.23881 114.918C8.35533 115 8.49512 114.93 8.76302 114.614C9.03092 114.297 9.34542 113.969 9.68324 113.617C10.6334 112.857 11.8413 112.499 13.0496 112.621C14.4868 112.617 15.9202 112.771 17.3245 113.078C18.7107 113.383 19.3979 113.652 19.3979 113.875C17.2846 115.356 15.2655 116.969 13.3524 118.704C12.3232 119.648 11.3434 120.646 10.417 121.693C7.73763 124.865 5.42422 128.333 3.52125 132.03C1.3324 136.324 0.137725 141.06 0.026748 145.884C-0.12642 148.456 0.383153 151.023 1.50609 153.339C2.46001 154.98 3.85224 156.321 5.52476 157.206C7.41209 158.134 9.49412 158.588 11.5936 158.531C13.3562 158.542 15.1145 158.353 16.8353 157.968C18.4566 157.59 20.0226 157.003 21.4946 156.222C22.681 155.619 23.8217 154.93 24.9076 154.159C25.7346 153.573 26.7597 152.753 28.0643 151.581C29.4599 150.29 30.7565 148.895 31.9432 147.408C33.3527 145.755 34.5524 144.243 35.5309 142.849C36.5093 141.454 37.4529 140.012 38.3731 138.5C38.8897 137.746 39.3642 136.964 39.7942 136.156C39.9011 135.849 39.9905 135.536 40.0621 135.219C40.1203 134.949 40.1436 134.785 39.9689 134.726C39.7942 134.668 39.3166 135.125 38.5245 136.074C37.8084 136.932 37.1304 137.772 36.4818 138.574C36.413 138.659 36.3445 138.744 36.2764 138.828C35.6074 139.654 34.8877 140.437 34.1214 141.172C33.4109 141.876 32.6304 142.591 31.7918 143.318C30.8182 144.118 29.7776 144.831 28.6817 145.45C27.2418 146.384 25.712 147.17 24.1155 147.795C21.5531 148.72 18.8469 149.177 16.1248 149.142C14.2099 149.209 12.3011 148.891 10.5102 148.205C9.1475 147.636 7.92644 146.772 6.93423 145.673C5.35669 143.863 4.52367 141.516 4.60454 139.109C4.76083 136.067 5.63531 133.106 7.15554 130.472C8.31741 128.249 9.7241 126.166 11.3489 124.259C12.481 122.906 13.7282 121.656 15.0764 120.521C17.5695 118.527 20.2184 116.74 22.9973 115.176C23.8598 114.6 24.6132 113.874 25.2221 113.031C25.5595 112.506 25.7451 111.898 25.7579 111.273C25.7579 110.664 24.7794 110.066 22.8225 109.491C21.7971 109.24 20.7589 109.044 19.7124 108.905C18.7875 108.758 17.8533 108.675 16.9168 108.659C15.8746 108.637 14.8327 108.72 13.8067 108.905C13.1137 109.024 12.4518 109.283 11.8615 109.667C11.2108 110.131 10.6166 110.67 10.0909 111.273C9.55226 111.875 9.07608 112.531 8.66983 113.23Z" fill="white"/>
<path d="M65.6265 159.316C65.4787 160.608 65.2036 161.884 64.8044 163.124C64.2873 164.966 63.6106 166.981 62.7722 169.167C62.1563 170.863 61.4184 172.515 60.5645 174.11C60.042 175.088 59.3277 175.957 58.4623 176.667C57.3507 177.413 56.1088 177.952 54.7979 178.261C53.4588 178.659 52.0983 178.984 50.7225 179.236C50.0864 179.359 49.4431 179.443 48.7964 179.488C48.5263 179.488 48.3736 179.362 48.3149 179.178C48.2835 178.923 48.3695 178.667 48.5497 178.479C49.1707 177.767 49.9238 177.175 50.7695 176.736C51.9596 176.025 53.3337 175.13 54.8919 174.052C56.13 173.269 57.259 172.332 58.2508 171.266C59.1147 170.118 59.8657 168.893 60.4941 167.607C61.3279 166.002 62.0796 164.374 62.761 162.745C63.4421 161.117 63.9355 159.993 64.2169 159.385C64.4988 158.777 64.8281 158.513 65.1799 158.536C65.5324 158.559 65.6265 158.846 65.6265 159.316Z" fill="white"/>
<path fill-rule="evenodd" clip-rule="evenodd" d="M88.7149 111.208C93.3419 104.689 95.9511 96.9635 96.2193 88.9854C96.253 86.6494 96.3534 84.8689 96.4251 83.6046C96.4532 83.109 96.4763 82.6925 96.4894 82.3534C96.5343 81.2143 96.5786 80.4201 96.6029 79.9812L96.6073 79.9089C96.6303 79.4881 96.6303 79.2773 96.3603 79.2773C96.0902 79.2773 95.7496 79.6283 95.3504 80.4469C94.7728 81.7386 94.2707 83.0628 93.8471 84.4119C93.287 86.0229 92.9277 87.6962 92.7786 89.3944V92.0028V95.0084C92.8385 96.7085 92.5878 98.4042 92.0383 100.015C90.7864 103.574 88.3818 106.619 85.2031 108.67C82.0856 110.513 78.5289 111.491 74.9031 111.5C72.3781 111.528 69.9099 110.753 67.8565 109.29C66.0445 107.83 65.0053 105.622 65.0377 103.301C65.0926 99.8001 66.3414 95.6443 68.7846 90.8333C68.9306 90.357 68.9306 89.8476 68.7846 89.3713C68.6786 88.8919 68.2208 89.3127 67.5041 90.6226C63.8245 97.1568 61.9844 103.215 61.9844 108.799C61.9085 111.829 62.9818 114.777 64.9909 117.056C67.0213 119.115 69.7976 120.274 72.6956 120.272C78.9275 120.218 84.2675 117.196 88.7149 111.208ZM83.6531 94.8095C83.8402 94.2279 83.8808 93.6094 83.7704 93.0084V93.0321C83.678 92.4118 83.4323 91.8252 83.0537 91.3245C82.5696 90.7179 82.0182 90.1687 81.4095 89.6868C80.6815 89.1257 80.0709 88.6457 79.5775 88.2367C78.7204 89.6282 78.0979 90.6924 77.6987 91.3944C77.2989 92.0964 76.8292 93.067 76.2772 94.3071C76.1131 94.6811 75.8543 95.2422 75.4906 95.9791C75.553 96.3101 75.7376 96.6063 76.0071 96.8095C76.289 97.1374 76.7119 97.4997 77.1816 97.8974L78.7317 99.1842C79.0641 99.5077 79.4652 99.7515 79.9062 99.8974C80.3378 99.8095 80.7271 99.5788 81.0102 99.2428C81.702 98.5975 82.2815 97.8425 82.725 97.0084C83.1017 96.3058 83.4123 95.5695 83.6531 94.8095Z" fill="white"/>
<path fill-rule="evenodd" clip-rule="evenodd" d="M133.137 52.4387C132.147 54.2554 131.337 56.1637 130.717 58.1375H130.74C130.74 58.5564 131.056 58.976 131.781 59.4891C132.506 60.0016 133.512 60.8526 134.844 62.0296C136.177 63.2066 137.042 63.8008 137.428 63.8008C138.094 63.8008 139.076 62.5539 140.433 60.072C141.543 58.3077 142.234 56.3152 142.455 54.2448C142.326 52.4761 141.548 50.8164 140.269 49.5833C139.272 48.3641 137.838 47.5787 136.271 47.3923C135.795 47.3923 134.751 49.0744 133.137 52.4387ZM127.619 68.2533C125.787 71.6248 124.871 73.5675 124.871 74.0799C124.871 74.3829 125.877 75.3274 127.982 76.9471C129.01 77.8878 130.172 78.6734 131.43 79.2775C132.786 79.2775 134.634 76.8773 136.972 72.0756C138.231 73.0675 139.404 74.1628 140.479 75.3505C141.462 76.4228 142.128 76.9589 142.818 76.9589C143.507 76.9589 144.641 75.8866 146.231 73.5556C147.552 71.8393 148.362 69.7882 148.57 67.6355C148.39 65.8949 147.554 64.2877 146.231 63.1374C144.641 61.6805 143.332 60.9461 142.303 60.9461C141.987 60.9461 141.216 61.9835 139.965 64.0345C139.112 65.4915 138.2 66.9946 137.252 68.5326C136.514 67.1698 135.494 65.9778 134.26 65.037C132.775 63.7895 131.687 63.1723 130.998 63.1723C130.577 63.1879 129.45 64.8812 127.619 68.2533Z" fill="white"/>
<path d="M30.4916 130.237C29.7962 132.345 28.8792 134.373 27.7562 136.285C27.2445 137.202 26.5784 138.022 25.7876 138.709C25.1059 139.113 24.3849 139.446 23.636 139.702C22.686 140.048 21.2439 140.544 19.2983 141.179C18.184 141.6 17.035 141.921 15.8647 142.137C15.6359 142.137 15.5214 142.08 15.5214 141.964C15.304 141.653 16.4599 140.636 18.9549 138.917C21.45 137.197 23.1438 136.066 23.8877 135.524C24.7623 134.875 25.5341 134.097 26.1768 133.215C26.9523 132.176 27.5305 131.002 27.8821 129.752C27.4863 129.713 27.0879 129.793 26.7376 129.983C26.3857 130.178 25.9941 130.288 25.5931 130.306C24.6263 130.305 23.695 129.939 22.9836 129.279C22.3358 128.764 22.0016 127.946 22.1023 127.12C22.2167 126.647 22.377 126.082 22.583 125.447C22.9694 124.415 23.4125 123.405 23.9106 122.423C24.4753 121.204 25.1576 120.044 25.9479 118.96C26.3437 118.213 27.0562 117.69 27.8821 117.54C29.0225 117.537 30.0936 118.092 30.7548 119.029C31.5348 120.044 31.9396 121.301 31.8993 122.584C31.9034 123.286 31.8613 123.988 31.7734 124.685C31.6933 125.377 31.6017 125.955 31.5102 126.416C31.4186 126.878 31.2698 127.478 31.0867 128.194C30.9036 128.91 30.709 129.59 30.4916 130.237Z" fill="white"/>
</g>
</svg>
