<svg width="22" height="25" viewBox="0 0 22 25" fill="none" xmlns="http://www.w3.org/2000/svg">
<path d="M13.2886 7.77771V10.4486C13.2886 12.9777 11.2354 15.0309 8.71135 15.0309C6.18224 15.0309 4.13414 12.9853 4.13414 10.4587V6.18024C4.13414 3.65366 6.18224 1.6081 8.71135 1.6081C9.1316 1.6081 9.47084 1.26886 9.47084 0.848604C9.47084 0.428351 9.1316 0.0891113 8.71135 0.0891113C5.34427 0.0891113 2.61516 2.81569 2.61516 6.18024V10.4587C2.61516 13.8233 5.34427 16.5498 8.71135 16.5498C12.0734 16.5498 14.8075 13.8157 14.8075 10.4486V7.77771C14.8075 7.35745 14.4683 7.01821 14.048 7.01821C13.6278 7.01821 13.2886 7.35745 13.2886 7.77771Z" fill="white"/>
<path d="M15.9037 9.82565V10.7396C15.9037 14.7092 12.6834 17.9244 8.7113 17.9244C4.73916 17.9244 1.51891 14.7041 1.51891 10.732V9.85857C1.51891 9.43831 1.17967 9.09907 0.759416 9.09907C0.339164 9.09907 -7.62939e-05 9.43831 -7.62939e-05 9.85857V10.732C-7.62939e-05 15.5446 3.89865 19.4434 8.7113 19.4434C13.5239 19.4434 17.4227 15.5472 17.4227 10.7396V9.82565C17.4227 9.4054 17.0834 9.06616 16.6632 9.06616C16.2429 9.06616 15.9037 9.40793 15.9037 9.82565Z" fill="white"/>
<path d="M8.4176 19.8281V22.899V23.6585H9.93659V22.899V19.8281V19.0686H8.4176V19.8281Z" fill="white"/>
<path d="M4.87323 24.8105H13.3542C13.7745 24.8105 14.1137 24.4712 14.1137 24.051C14.1137 23.6307 13.7745 23.2915 13.3542 23.2915H4.87323C4.45298 23.2915 4.11374 23.6307 4.11374 24.051C4.11374 24.4712 4.45298 24.8105 4.87323 24.8105Z" fill="white"/>
<path d="M6.16449 6.07636H9.53917C9.95942 6.07636 10.2987 5.73712 10.2987 5.31687C10.2987 4.89661 9.95942 4.55737 9.53917 4.55737H6.16449C5.74424 4.55737 5.405 4.89661 5.405 5.31687C5.405 5.73459 5.74424 6.07636 6.16449 6.07636Z" fill="white"/>
<path d="M12.4912 7.49152L15.5393 1.08647C15.719 0.706722 15.5595 0.253558 15.1798 0.0738118C14.8 -0.105935 14.3469 0.0535587 14.1671 0.433305L11.119 6.83836C10.9393 7.2181 11.0988 7.67127 11.4785 7.85101C11.8583 8.03076 12.3114 7.86873 12.4912 7.49152Z" fill="white"/>
<path d="M14.1746 1.09918L16.4531 5.65613C16.6404 6.03081 17.0961 6.18271 17.4708 5.99537C17.8455 5.80803 17.9974 5.35233 17.8101 4.97765L15.5316 0.420698C15.3442 0.0460151 14.8886 -0.105883 14.5139 0.0814581C14.1392 0.2688 13.9873 0.724495 14.1746 1.09918Z" fill="white"/>
<path d="M17.2126 6.07636H21.2405C21.6607 6.07636 21.9999 5.73712 21.9999 5.31687C21.9999 4.89661 21.6607 4.55737 21.2405 4.55737H17.2126C16.7924 4.55737 16.4531 4.89661 16.4531 5.31687C16.4531 5.73459 16.7949 6.07636 17.2126 6.07636Z" fill="white"/>
<path d="M12.2783 6.56235L10.015 4.72691C9.68844 4.46362 9.20996 4.51172 8.94667 4.8383C8.68338 5.16489 8.73148 5.64337 9.05806 5.90666L11.3213 7.7421C11.6479 8.00539 12.1264 7.95729 12.3897 7.6307C12.6555 7.30412 12.6049 6.82564 12.2783 6.56235Z" fill="white"/>
</svg>
