<svg width="17" height="14" viewBox="0 0 17 14" fill="none" xmlns="http://www.w3.org/2000/svg">
<path d="M11.5309 9.97643L8.78612 7.23169L6.04138 9.97643" stroke="white" stroke-linecap="round" stroke-linejoin="round"/>
<path d="M8.78601 7.23169V13.4073" stroke="white" stroke-linecap="round" stroke-linejoin="round"/>
<path d="M14.543 11.6163C15.2123 11.2514 15.741 10.6741 16.0457 9.97538C16.3504 9.27667 16.4137 8.49639 16.2257 7.75768C16.0377 7.01897 15.609 6.36392 15.0073 5.89589C14.4057 5.42787 13.6653 5.17354 12.903 5.17304H12.0385C11.8308 4.36968 11.4436 3.62386 10.9062 2.99165C10.3688 2.35944 9.69503 1.85729 8.93559 1.52295C8.17616 1.18861 7.35082 1.03079 6.52161 1.06134C5.6924 1.09189 4.88091 1.31003 4.14814 1.69934C3.41537 2.08866 2.78039 2.63903 2.29094 3.30907C1.8015 3.97912 1.47031 4.7514 1.3223 5.56786C1.17428 6.38432 1.21328 7.22372 1.43636 8.02294C1.65945 8.82216 2.06081 9.56041 2.61028 10.1822" stroke="white" stroke-linecap="round" stroke-linejoin="round"/>
<path d="M11.5309 9.97643L8.78612 7.23169L6.04138 9.97643" stroke="white" stroke-linecap="round" stroke-linejoin="round"/>
</svg>
